<?xml version="1.0" standalone="no"?>
<!DOCTYPE svg PUBLIC "-//W3C//DTD SVG 20010904//EN"
 "http://www.w3.org/TR/2001/REC-SVG-20010904/DTD/svg10.dtd">
<svg version="1.0" xmlns="http://www.w3.org/2000/svg"
 width="1000.000000pt" height="1000.000000pt" viewBox="0 0 1000.000000 1000.000000"
 preserveAspectRatio="xMidYMid meet">
<metadata>
Created by potrace 1.14, written by Peter Selinger 2001-2017
</metadata>
<g transform="translate(0.000000,1000.000000) scale(0.100000,-0.100000)"
fill="#000000" stroke="none">
<path d="M0 5000 l0 -5000 5000 0 5000 0 0 5000 0 5000 -5000 0 -5000 0 0
-5000z m5474 2160 l469 -420 244 0 244 0 119 80 120 80 0 -1448 0 -1448 -827
-785 c-455 -431 -834 -784 -843 -784 -9 0 -388 353 -843 784 l-827 785 0 1448
0 1448 120 -80 119 -80 244 0 244 0 469 420 c258 230 471 419 474 419 3 0 216
-189 474 -419z"/>
<path d="M4550 6989 l-435 -389 -320 -2 -320 -3 -3 -1256 -2 -1257 761 -723
c418 -398 765 -724 769 -724 4 0 351 326 769 724 l761 723 -2 1257 -3 1256
-322 5 -323 5 -435 388 c-239 213 -441 387 -447 386 -7 0 -209 -176 -448 -390z
m793 -104 l310 -280 -178 -3 -177 -2 -148 135 -149 135 -148 -135 -148 -135
-180 0 -180 0 27 27 c15 15 161 149 325 299 285 260 299 271 318 255 11 -9
158 -142 328 -296z m1047 -610 l0 -175 -604 0 -604 0 -4 -1335 c-3 -1170 -5
-1336 -18 -1348 -8 -8 -48 -32 -87 -53 l-72 -39 -88 47 -88 47 -3 1340 -2
1341 -605 0 -605 0 0 175 0 175 1390 0 1390 0 0 -175z m-1710 -728 l0 -402
-90 -90 -90 -90 90 -90 90 -91 -2 -636 -3 -637 -530 328 -530 328 -3 892 -2
891 535 0 535 0 0 -403z m1458 377 c105 -52 182 -159 224 -311 21 -73 22 -104
26 -500 4 -459 -1 -517 -53 -678 -58 -180 -177 -375 -283 -463 -35 -29 -488
-316 -719 -456 -10 -6 -13 240 -13 1213 l0 1221 383 0 383 0 52 -26z m-1620
-2483 l483 -283 467 273 c543 317 540 316 527 302 -5 -6 -232 -207 -503 -447
l-493 -437 -122 109 c-67 59 -284 251 -482 427 -198 175 -371 329 -385 343
l-25 25 25 -15 c14 -8 242 -142 508 -297z"/>
<path d="M3964 5587 c-2 -7 -3 -109 -2 -227 l3 -215 178 -3 177 -2 0 230 0
230 -175 0 c-133 0 -177 -3 -181 -13z"/>
<path d="M3962 4578 l3 -212 135 -84 c74 -46 154 -95 178 -109 l42 -25 0 321
0 321 -180 0 -180 0 2 -212z"/>
<path d="M5680 4874 c0 -577 3 -724 13 -718 140 80 268 268 319 469 22 87 23
105 23 513 l0 424 -24 19 c-21 17 -40 19 -177 19 l-154 0 0 -726z"/>
</g>
</svg>
